<svg viewBox="0 0 17 17" xmlns="http://www.w3.org/2000/svg" xmlns:xlink="http://www.w3.org/1999/xlink" width="17.000000" height="17.000000" fill="none">
	<rect id="carbon:white-paper" width="17.000000" height="17.000000" x="0.000000" y="0.000000" fill="rgb(255,255,255)" fill-opacity="0" />
	<path id="Vector" d="M11.6875 14.4394L10.3116 13.0634L9.5625 13.8125L11.6875 15.9375L15.9375 11.6875L15.1884 10.9384L11.6875 14.4394ZM4.78125 9.03125L8.5 9.03125L8.5 10.0938L4.78125 10.0938L4.78125 9.03125ZM4.78125 6.375L11.1562 6.375L11.1562 7.4375L4.78125 7.4375L4.78125 6.375ZM4.78125 3.71875L11.1562 3.71875L11.1562 4.78125L4.78125 4.78125L4.78125 3.71875Z" fill="rgb(255,182,0)" fill-rule="nonzero" />
	<path id="Vector" d="M8.5 15.9375L3.1875 15.9375C2.60153 15.9375 2.125 15.461 2.125 14.875L2.125 2.125C2.125 1.53903 2.60153 1.0625 3.1875 1.0625L12.75 1.0625C13.336 1.0625 13.8125 1.53903 13.8125 2.125L13.8125 10.0938L12.75 10.0938L12.75 2.125L3.1875 2.125L3.1875 14.875L8.5 14.875L8.5 15.9375Z" fill="rgb(255,182,0)" fill-rule="nonzero" />
</svg>
