<svg viewBox="0 0 23 23.5293" xmlns="http://www.w3.org/2000/svg" xmlns:xlink="http://www.w3.org/1999/xlink" width="23.000000" height="23.529297" fill="none" customFrame="#000000">
	<path id="Vector" d="M12.5455 5.88264L10.4545 5.88264L10.4545 11.7649L2.09091 11.7649C1.53637 11.7649 1.00453 11.5583 0.612413 11.1906C0.220291 10.8229 1.39283e-15 10.3242 0 9.80415L0 7.8434C0 7.32337 0.220291 6.82465 0.612413 6.45694C1.00453 6.08922 1.53637 5.88264 2.09091 5.88264L4.74218 5.88264C4.22349 5.04039 4.05708 4.04744 4.27526 3.09659C4.49344 2.14574 5.08065 1.30484 5.92285 0.737193C6.76505 0.16954 7.80216 -0.084365 8.83278 0.0247793C9.86341 0.133924 10.814 0.598328 11.5 1.32782C12.186 0.598328 13.1366 0.133924 14.1672 0.0247793C15.1978 -0.084365 16.2349 0.16954 17.0771 0.737193C17.9194 1.30484 18.5066 2.14574 18.7247 3.09659C18.9429 4.04744 18.7765 5.04039 18.2578 5.88264L20.9091 5.88264C21.4636 5.88264 21.9955 6.08922 22.3876 6.45694C22.7797 6.82465 23 7.32337 23 7.8434L23 9.80415C23 10.3242 22.7797 10.8229 22.3876 11.1906C21.9955 11.5583 21.4636 11.7649 20.9091 11.7649L12.5455 11.7649L12.5455 5.88264ZM6.27273 3.92189C6.27273 4.44192 6.49302 4.94064 6.88514 5.30835C7.27726 5.67607 7.80909 5.88264 8.36364 5.88264L10.4545 5.88264L10.4545 3.92189C10.4545 3.40187 10.2343 2.90314 9.84213 2.53543C9.45001 2.16772 8.91818 1.96114 8.36364 1.96114C7.80909 1.96114 7.27726 2.16772 6.88514 2.53543C6.49302 2.90314 6.27273 3.40187 6.27273 3.92189ZM12.5455 5.88264L14.6364 5.88264C15.0499 5.88264 15.4542 5.76765 15.798 5.5522C16.1419 5.33675 16.4099 5.03052 16.5681 4.67224C16.7264 4.31396 16.7678 3.91972 16.6871 3.53937C16.6064 3.15902 16.4073 2.80965 16.1149 2.53543C15.8224 2.26122 15.4499 2.07447 15.0443 1.99882C14.6387 1.92316 14.2183 1.96199 13.8362 2.11039C13.4541 2.2588 13.1276 2.51011 12.8978 2.83256C12.6681 3.155 12.5455 3.53409 12.5455 3.92189L12.5455 5.88264ZM20.9091 13.7257L12.5455 13.7257L12.5455 23.5294L16.7273 23.5294C17.8364 23.5294 18.9 23.1163 19.6843 22.3808C20.4685 21.6454 20.9091 20.648 20.9091 19.6079L20.9091 13.7257ZM10.4545 23.5294L10.4545 13.7257L2.09091 13.7257L2.09091 19.6079C2.09091 20.648 2.53149 21.6454 3.31573 22.3808C4.09998 23.1163 5.16364 23.5294 6.27273 23.5294L10.4545 23.5294Z" fill="rgb(255,255,255)" fill-rule="nonzero" />
</svg>
