<svg viewBox="0 0 17 17" xmlns="http://www.w3.org/2000/svg" xmlns:xlink="http://www.w3.org/1999/xlink" width="17.000000" height="17.000000" fill="none">
	<rect id="facebook" width="17.000000" height="17.000000" x="0.000000" y="0.000000" fill="rgb(255,255,255)" fill-opacity="0" />
	<path id="Vector" d="M10.625 1.41699C9.68573 1.41699 8.7849 1.79013 8.1207 2.45432C7.45651 3.11851 7.08337 4.01935 7.08337 4.95866L7.08337 7.08366L4.95837 7.08366L4.95837 9.91699L7.08337 9.91699L7.08337 15.5837L9.91671 15.5837L9.91671 9.91699L12.0417 9.91699L12.75 7.08366L9.91671 7.08366L9.91671 4.95866C9.91671 4.7708 9.99134 4.59063 10.1242 4.45779C10.257 4.32495 10.4372 4.25032 10.625 4.25032L12.75 4.25032L12.75 1.41699L10.625 1.41699Z" fill-rule="nonzero" stroke="rgb(0,198,79)" stroke-linecap="round" stroke-linejoin="round" stroke-width="1.000000" />
</svg>
