<svg viewBox="0 0 11.6875 8.14575" xmlns="http://www.w3.org/2000/svg" xmlns:xlink="http://www.w3.org/1999/xlink" width="11.687500" height="8.145752" fill="none" customFrame="#000000">
	<path id="Vector" d="M0 0.53125C0 0.390354 0.0559707 0.255228 0.155599 0.155599C0.255228 0.0559707 0.390354 6.29126e-16 0.53125 0L11.1562 0C11.2971 0 11.4323 0.0559707 11.5319 0.155599C11.6315 0.255228 11.6875 0.390354 11.6875 0.53125C11.6875 0.672146 11.6315 0.807272 11.5319 0.906901C11.4323 1.00653 11.2971 1.0625 11.1562 1.0625L0.53125 1.0625C0.390354 1.0625 0.255228 1.00653 0.155599 0.906901C0.0559707 0.807272 0 0.672146 0 0.53125ZM1.77083 4.07292C1.77083 3.93202 1.8268 3.7969 1.92643 3.69727C2.02606 3.59764 2.16119 3.54167 2.30208 3.54167L9.38542 3.54167C9.52631 3.54167 9.66144 3.59764 9.76107 3.69727C9.8607 3.7969 9.91667 3.93202 9.91667 4.07292C9.91667 4.21381 9.8607 4.34894 9.76107 4.44857C9.66144 4.5482 9.52631 4.60417 9.38542 4.60417L2.30208 4.60417C2.16119 4.60417 2.02606 4.5482 1.92643 4.44857C1.8268 4.34894 1.77083 4.21381 1.77083 4.07292ZM3.89583 7.61458C3.89583 7.47369 3.9518 7.33856 4.05143 7.23893C4.15106 7.1393 4.28619 7.08333 4.42708 7.08333L7.26042 7.08333C7.40131 7.08333 7.53644 7.1393 7.63607 7.23893C7.7357 7.33856 7.79167 7.47369 7.79167 7.61458C7.79167 7.75548 7.7357 7.8906 7.63607 7.99023C7.53644 8.08986 7.40131 8.14583 7.26042 8.14583L4.42708 8.14583C4.28619 8.14583 4.15106 8.08986 4.05143 7.99023C3.9518 7.8906 3.89583 7.75548 3.89583 7.61458Z" fill="rgb(21.3317,21.3317,21.3317)" fill-rule="nonzero" />
</svg>
