<svg viewBox="0 0 2 15.3335" xmlns="http://www.w3.org/2000/svg" xmlns:xlink="http://www.w3.org/1999/xlink" width="2.000000" height="15.333496" fill="none" customFrame="#000000">
	<path id="Vector" d="M1 15.3333C0.735857 15.3299 0.483505 15.2234 0.296712 15.0366C0.109919 14.8498 0.00345329 14.5975 0 14.3333L0 5C0 4.73478 0.105357 4.48043 0.292894 4.29289C0.48043 4.10536 0.734784 4 1 4C1.26522 4 1.51957 4.10536 1.70711 4.29289C1.89464 4.48043 2 4.73478 2 5L2 14.3333C1.99655 14.5975 1.89008 14.8498 1.70329 15.0366C1.51649 15.2234 1.26414 15.3299 1 15.3333ZM1 2.66667C0.735857 2.66321 0.483505 2.55675 0.296712 2.36995C0.109919 2.18316 0.00345329 1.93081 0 1.66667L0 1C0 0.734783 0.105357 0.480429 0.292894 0.292893C0.48043 0.105357 0.734784 1.18424e-15 1 0C1.26522 1.18424e-15 1.51957 0.105357 1.70711 0.292893C1.89464 0.480429 2 0.734783 2 1L2 1.66667C1.99655 1.93081 1.89008 2.18316 1.70329 2.36995C1.51649 2.55675 1.26414 2.66321 1 2.66667Z" fill="rgb(0,198,79)" fill-rule="nonzero" />
</svg>
