<svg viewBox="0 0 34.1667 34.1667" xmlns="http://www.w3.org/2000/svg" xmlns:xlink="http://www.w3.org/1999/xlink" width="34.166748" height="34.166687" fill="none" customFrame="#000000">
	<path id="Vector" d="M9.90809 0L24.2581 0C29.7248 0 34.1664 4.44167 34.1664 9.90833L34.1664 24.2583C34.1664 26.8862 33.1225 29.4064 31.2643 31.2646C29.4062 33.1228 26.8859 34.1667 24.2581 34.1667L9.90809 34.1667C4.44142 34.1667 -0.000244141 29.725 -0.000244141 24.2583L-0.000244141 9.90833C-0.000244141 7.28048 1.04367 4.76026 2.90184 2.90208C4.76001 1.04391 7.28024 3.41394e-15 9.90809 0ZM9.56642 3.41667C7.93534 3.41667 6.37106 4.06461 5.21772 5.21796C4.06437 6.37131 3.41642 7.93558 3.41642 9.56667L3.41642 24.6C3.41642 27.9996 6.16684 30.75 9.56642 30.75L24.5998 30.75C26.2308 30.75 27.7951 30.1021 28.9485 28.9487C30.1018 27.7954 30.7498 26.2311 30.7498 24.6L30.7498 9.56667C30.7498 6.16708 27.9993 3.41667 24.5998 3.41667L9.56642 3.41667ZM26.0518 5.97917C26.6182 5.97917 27.1613 6.20415 27.5618 6.60462C27.9623 7.00508 28.1873 7.54824 28.1873 8.11458C28.1873 8.68093 27.9623 9.22408 27.5618 9.62455C27.1613 10.025 26.6182 10.25 26.0518 10.25C25.4855 10.25 24.9423 10.025 24.5419 9.62455C24.1414 9.22408 23.9164 8.68093 23.9164 8.11458C23.9164 7.54824 24.1414 7.00508 24.5419 6.60462C24.9423 6.20415 25.4855 5.97917 26.0518 5.97917ZM17.0831 8.54167C19.3485 8.54167 21.5211 9.44159 23.123 11.0435C24.7248 12.6453 25.6248 14.8179 25.6248 17.0833C25.6248 19.3487 24.7248 21.5213 23.123 23.1232C21.5211 24.7251 19.3485 25.625 17.0831 25.625C14.8177 25.625 12.6451 24.7251 11.0432 23.1232C9.44135 21.5213 8.54142 19.3487 8.54142 17.0833C8.54142 14.8179 9.44135 12.6453 11.0432 11.0435C12.6451 9.44159 14.8177 8.54167 17.0831 8.54167ZM17.0831 11.9583C15.7239 11.9583 14.4203 12.4983 13.4592 13.4594C12.498 14.4205 11.9581 15.7241 11.9581 17.0833C11.9581 18.4426 12.498 19.7461 13.4592 20.7073C14.4203 21.6684 15.7239 22.2083 17.0831 22.2083C18.4423 22.2083 19.7459 21.6684 20.707 20.7073C21.6681 19.7461 22.2081 18.4426 22.2081 17.0833C22.2081 15.7241 21.6681 14.4205 20.707 13.4594C19.7459 12.4983 18.4423 11.9583 17.0831 11.9583Z" fill="rgb(83,169,36)" fill-rule="nonzero" />
</svg>
