<svg viewBox="0 0 17 17" xmlns="http://www.w3.org/2000/svg" xmlns:xlink="http://www.w3.org/1999/xlink" width="17.000000" height="17.000000" fill="none">
	<rect id="instagram" width="17.000000" height="17.000000" x="0.000000" y="0.000000" fill="rgb(255,255,255)" fill-opacity="0" />
	<path id="Vector" d="M12.0416 1.41699C13.9976 1.41699 15.5833 3.00265 15.5833 4.95866L15.5833 12.042C15.5833 13.998 13.9976 15.5837 12.0416 15.5837L4.95829 15.5837C3.00228 15.5837 1.41663 13.998 1.41663 12.042L1.41663 4.95866C1.41663 3.00265 3.00228 1.41699 4.95829 1.41699L12.0416 1.41699Z" stroke="rgb(0,198,79)" stroke-linecap="round" stroke-linejoin="round" stroke-width="1.000000" />
	<path id="Vector" d="M11.0455 9.77403C10.7711 10.303 10.3368 10.732 9.80444 10.9999C9.27211 11.2678 8.66886 11.3611 8.08047 11.2664C7.49209 11.1717 6.94854 10.8939 6.52713 10.4725C6.10573 10.0511 5.82793 9.50759 5.73325 8.91921C5.63857 8.33082 5.73183 7.72757 5.99977 7.19524C6.2677 6.66291 6.69667 6.22862 7.22565 5.95415C7.75463 5.67967 8.3567 5.57898 8.94621 5.66639C9.54753 5.75556 10.1042 6.03576 10.5341 6.46561C10.9639 6.89546 11.2441 7.45215 11.3333 8.05347C11.4207 8.64298 11.32 9.24504 11.0455 9.77403Z" fill-rule="nonzero" stroke="rgb(0,198,79)" stroke-linecap="round" stroke-linejoin="round" stroke-width="1.000000" />
	<path id="Vector" d="M12.3959 4.60449L12.4086 4.60449" stroke="rgb(0,198,79)" stroke-linecap="round" stroke-linejoin="round" stroke-width="1.000000" />
</svg>
