<svg viewBox="0 0 32 32" xmlns="http://www.w3.org/2000/svg" xmlns:xlink="http://www.w3.org/1999/xlink" width="32.000000" height="32.000000" fill="none">
	<rect id="instagram" width="32.000000" height="32.000000" x="0.000000" y="0.000000" fill="rgb(255,255,255)" fill-opacity="0" />
	<path id="Vector" d="M22.6667 2.6665C26.3486 2.6665 29.3334 5.65127 29.3334 9.33317L29.3334 22.6665C29.3334 26.3484 26.3486 29.3332 22.6667 29.3332L9.33341 29.3332C5.65152 29.3332 2.66675 26.3484 2.66675 22.6665L2.66675 9.33317C2.66675 5.65127 5.65152 2.6665 9.33341 2.6665L22.6667 2.6665Z" stroke="rgb(128,128,128)" stroke-linecap="round" stroke-linejoin="round" stroke-width="2.000000" />
	<path id="Vector" d="M20.7917 18.3986C20.275 19.3943 19.4575 20.2018 18.4555 20.7061C17.4535 21.2105 16.3179 21.386 15.2104 21.2078C14.1028 21.0296 13.0797 20.5067 12.2865 19.7135C11.4932 18.9202 10.9703 17.8971 10.7921 16.7895C10.6139 15.682 10.7894 14.5464 11.2938 13.5444C11.7981 12.5424 12.6056 11.7249 13.6013 11.2082C14.5971 10.6916 15.7304 10.502 16.84 10.6666C17.9719 10.8344 19.0198 11.3619 19.8289 12.171C20.6381 12.9801 21.1655 14.028 21.3334 15.1599C21.4979 16.2696 21.3084 17.4029 20.7917 18.3986Z" fill-rule="nonzero" stroke="rgb(128,128,128)" stroke-linecap="round" stroke-linejoin="round" stroke-width="2.000000" />
	<path id="Vector" d="M23.3333 8.6665L23.3466 8.6665" stroke="rgb(128,128,128)" stroke-linecap="round" stroke-linejoin="round" stroke-width="2.000000" />
</svg>
