<svg viewBox="0 0 23 21.647" xmlns="http://www.w3.org/2000/svg" xmlns:xlink="http://www.w3.org/1999/xlink" width="23.000000" height="21.646973" fill="none" customFrame="#000000">
	<path id="Vector" d="M21.5481 8.39017C21.161 8.00941 20.7606 7.61706 20.6096 7.27206C20.47 6.95605 20.4618 6.43227 20.4536 5.92492C20.4382 4.98172 20.4217 3.9129 19.6321 3.16975C18.8425 2.4266 17.7069 2.41113 16.7048 2.39664C16.1657 2.38891 15.6092 2.38118 15.2734 2.24975C14.9079 2.10769 14.49 1.7308 14.0854 1.36647C13.377 0.725756 12.572 0 11.5 0C10.428 0 9.62406 0.725756 8.91455 1.36647C8.51 1.7308 8.09313 2.10769 7.72656 2.24975C7.39286 2.38118 6.83429 2.38891 6.29522 2.39664C5.29308 2.41113 4.15746 2.4266 3.36786 3.16975C2.57826 3.9129 2.56696 4.98172 2.54643 5.92492C2.53821 6.43227 2.53 6.95605 2.39036 7.27206C2.23942 7.61609 1.83897 8.00941 1.45187 8.39017C0.771116 9.05698 0 9.81462 0 10.8235C0 11.8324 0.771116 12.5891 1.45187 13.2569C1.83897 13.6376 2.23942 14.03 2.39036 14.375C2.53 14.691 2.53821 15.2148 2.54643 15.7221C2.56183 16.6653 2.57826 17.7342 3.36786 18.4773C4.15746 19.2205 5.29308 19.2359 6.29522 19.2504C6.83429 19.2582 7.3908 19.2659 7.72656 19.3973C8.0921 19.5394 8.51 19.9163 8.91455 20.2806C9.62304 20.9213 10.428 21.6471 11.5 21.6471C12.572 21.6471 13.3759 20.9213 14.0854 20.2806C14.49 19.9163 14.9069 19.5394 15.2734 19.3973C15.6092 19.2659 16.1657 19.2582 16.7048 19.2504C17.7069 19.2359 18.8425 19.2205 19.6321 18.4773C20.4217 17.7342 20.4382 16.6653 20.4536 15.7221C20.4618 15.2148 20.47 14.691 20.6096 14.375C20.7606 14.031 21.161 13.6376 21.5481 13.2569C22.2289 12.5901 23 11.8324 23 10.8235C23 9.81462 22.2289 9.05794 21.5481 8.39017ZM16.1883 9.05118L10.4383 14.4629C10.362 14.5348 10.2714 14.5918 10.1717 14.6308C10.072 14.6697 9.96509 14.6897 9.85714 14.6897C9.7492 14.6897 9.64231 14.6697 9.54259 14.6308C9.44287 14.5918 9.35227 14.5348 9.27598 14.4629L6.8117 12.1436C6.73538 12.0718 6.67484 11.9865 6.63353 11.8927C6.59223 11.7988 6.57097 11.6982 6.57097 11.5966C6.57097 11.4951 6.59223 11.3945 6.63353 11.3006C6.67484 11.2068 6.73538 11.1215 6.8117 11.0497C6.96583 10.9046 7.17488 10.8231 7.39286 10.8231C7.50079 10.8231 7.60766 10.8431 7.70738 10.882C7.8071 10.9209 7.8977 10.9778 7.97402 11.0497L9.85714 12.823L15.026 7.95723C15.1023 7.8854 15.1929 7.82842 15.2926 7.78954C15.3923 7.75067 15.4992 7.73066 15.6071 7.73066C15.7151 7.73066 15.8219 7.75067 15.9217 7.78954C16.0214 7.82842 16.112 7.8854 16.1883 7.95723C16.2646 8.02906 16.3252 8.11433 16.3665 8.20818C16.4078 8.30203 16.429 8.40262 16.429 8.5042C16.429 8.60578 16.4078 8.70637 16.3665 8.80022C16.3252 8.89407 16.2646 8.97935 16.1883 9.05118Z" fill="rgb(255,255,255)" fill-rule="nonzero" />
</svg>
