<svg viewBox="0 0 17 17" xmlns="http://www.w3.org/2000/svg" xmlns:xlink="http://www.w3.org/1999/xlink" width="17.000000" height="17.000000" fill="none">
	<rect id="linkedin" width="17.000000" height="17.000000" x="0.000000" y="0.000000" fill="rgb(255,255,255)" fill-opacity="0" />
	<path id="Vector" d="M14.3386 6.91179C15.1356 7.70882 15.5834 8.78982 15.5834 9.91699L15.5834 14.8753L12.75 14.8753L12.75 9.91699C12.75 9.54127 12.6008 9.18093 12.3351 8.91526C12.0694 8.64958 11.7091 8.50032 11.3334 8.50032C10.9577 8.50032 10.5973 8.64958 10.3316 8.91526C10.066 9.18093 9.91671 9.54127 9.91671 9.91699L9.91671 14.8753L7.08337 14.8753L7.08337 9.91699C7.08337 8.78982 7.53114 7.70882 8.32817 6.91179C9.1252 6.11476 10.2062 5.66699 11.3334 5.66699C12.4605 5.66699 13.5415 6.11476 14.3386 6.91179Z" fill-rule="nonzero" stroke="rgb(0,198,79)" stroke-linecap="round" stroke-linejoin="round" stroke-width="1.000000" />
	<path id="Vector" d="M4.24996 6.375L4.24996 14.875L1.41663 14.875L1.41663 6.375L4.24996 6.375Z" stroke="rgb(0,198,79)" stroke-linecap="round" stroke-linejoin="round" stroke-width="1.000000" />
	<path id="Vector" d="M2.83329 4.25033C2.05089 4.25033 1.41663 3.61606 1.41663 2.83366C1.41663 2.05126 2.05089 1.41699 2.83329 1.41699C3.6157 1.41699 4.24996 2.05126 4.24996 2.83366C4.24996 3.61606 3.6157 4.25033 2.83329 4.25033Z" stroke="rgb(0,198,79)" stroke-linecap="round" stroke-linejoin="round" stroke-width="1.000000" />
</svg>
