<svg viewBox="0 0 13.6 16.7998" xmlns="http://www.w3.org/2000/svg" xmlns:xlink="http://www.w3.org/1999/xlink" width="13.599976" height="16.799805" fill="none" customFrame="#000000">
	<path id="Vector" d="M5.4808 0.607078C6.41696 0.607078 7.29953 0.841876 8.07006 1.2548C8.00835 1.61509 7.88819 1.87013 7.72417 2.03448C7.62239 2.13307 7.50171 2.21017 7.36936 2.26119C6.86268 2.02387 6.31408 1.88839 5.7549 1.8625C5.19571 1.8366 4.63688 1.92078 4.11032 2.11024C3.58376 2.2997 3.09978 2.59073 2.68601 2.9667C2.27224 3.34268 1.93679 3.79624 1.6988 4.30149C1.46081 4.80675 1.32495 5.35379 1.29898 5.9114C1.27301 6.46901 1.35743 7.02626 1.54743 7.55134C1.73742 8.07641 2.02927 8.55903 2.40631 8.97163C2.78335 9.38424 3.2382 9.71875 3.74488 9.95606C4.30403 10.1725 4.81988 10.2931 5.29243 10.318L5.4808 10.3228C6.00477 10.3228 6.58313 10.2008 7.2159 9.95687C7.95598 9.62545 8.58702 9.09218 9.03626 8.41854C9.5559 8.59667 10.1803 8.48817 10.5741 8.09387C10.239 8.93146 9.7015 9.67349 9.00947 10.254L10.3256 14.1929C10.4304 14.5064 10.422 14.8465 10.3019 15.1545C10.1818 15.4625 9.95758 15.7189 9.66795 15.8794C8.55479 16.4972 7.15663 16.8 5.4808 16.8C3.80496 16.8 2.40681 16.4972 1.29364 15.8794C1.00401 15.7189 0.779754 15.4625 0.65966 15.1545C0.539566 14.8465 0.531187 14.5064 0.635975 14.1929L1.95212 10.254C1.09197 9.53234 0.475157 8.56436 0.185314 7.48132C-0.10453 6.39828 -0.0533859 5.25255 0.331811 4.19947C0.717009 3.1464 1.41763 2.2369 2.33868 1.59429C3.25974 0.951676 4.35668 0.607032 5.4808 0.607078ZM7.96288 10.9633L7.67059 11.0839L7.65597 11.0904C7.05141 11.3513 6.40435 11.5005 5.7463 11.5308L5.7325 11.5308L5.67323 11.5341L5.4808 11.5373L5.32166 11.5341L5.21611 11.53C4.55783 11.5001 3.91049 11.3511 3.30562 11.0904L3.29101 11.0839C3.19287 11.0454 3.09542 11.0052 2.99871 10.9633L1.79136 14.5775C1.77646 14.6222 1.77764 14.6706 1.79468 14.7145C1.81172 14.7584 1.84356 14.795 1.88473 14.818C2.80222 15.3256 3.9982 15.5855 5.4808 15.5855C6.96339 15.5855 8.16019 15.3264 9.07686 14.818C9.11803 14.795 9.14988 14.7584 9.16692 14.7145C9.18396 14.6706 9.18513 14.6222 9.17023 14.5775L7.96288 10.9633ZM5.2291 11.5316L5.32166 11.5341L5.34845 11.5357L5.4808 11.5373C5.39636 11.5373 5.31245 11.5354 5.2291 11.5316ZM10.3459 0.509921L10.3524 0.607078C10.3524 1.53817 10.5716 2.19398 10.9857 2.6069C11.3681 2.98744 11.9584 3.20361 12.7801 3.23438L12.9912 3.23843C13.769 3.23843 13.8015 4.35412 13.0886 4.44642L12.9912 4.4529C12.0575 4.4529 11.3998 4.6715 10.9857 5.08442C10.6041 5.46657 10.3873 6.05438 10.3565 6.87374L10.3524 7.08425C10.3524 7.89389 9.13451 7.89389 9.13451 7.08425C9.13451 6.15315 8.91529 5.49734 8.5012 5.08442C8.11796 4.70389 7.5285 4.48771 6.70682 4.45695L6.49572 4.4529C5.71788 4.4529 5.6854 3.3372 6.39828 3.24491L6.49572 3.23843C7.42944 3.23843 8.08711 3.01982 8.5012 2.6069C8.91529 2.19398 9.13451 1.53817 9.13451 0.607078C9.13451 -0.168563 10.2534 -0.200948 10.3459 0.509921ZM9.74346 2.99796L9.62654 3.16232C9.42324 3.43062 9.17491 3.66181 8.89255 3.84566C9.23205 4.06635 9.52182 4.35503 9.74346 4.69336C9.96486 4.35511 10.2543 4.06644 10.5936 3.84566C10.3115 3.66173 10.0634 3.43055 9.86038 3.16232L9.74346 2.99796Z" fill="rgb(0,198,79)" fill-rule="nonzero" />
</svg>
