<svg viewBox="0 0 11.5383 18.668" xmlns="http://www.w3.org/2000/svg" xmlns:xlink="http://www.w3.org/1999/xlink" width="11.538330" height="18.667969" fill="none" customFrame="#000000">
	<g id="Group">
		<path id="Vector" d="M1 5.76841C1.00019 5.01203 1.18033 4.26654 1.52553 3.59352C1.87074 2.9205 2.3711 2.33926 2.9853 1.89781C3.59949 1.45635 4.3099 1.16735 5.05785 1.05467C5.80579 0.941991 6.56982 1.00887 7.28681 1.24977C8.00381 1.49068 8.65321 1.8987 9.18137 2.44015C9.70954 2.98159 10.1013 3.64092 10.3243 4.36368C10.5474 5.08644 10.5953 5.85188 10.464 6.5968C10.3328 7.34172 10.0263 8.04473 9.56971 8.64778L9.4181 8.81306C9.34401 8.89286 9.08753 9.13907 9.00432 9.20861C8.87589 9.31702 8.74155 9.41824 8.60194 9.51182L6.87272 10.703C6.4453 10.9977 6.09591 11.3919 5.85465 11.8515C5.61338 12.3112 5.48747 12.8227 5.48775 13.3419" fill-rule="nonzero" stroke="rgb(0,198,79)" stroke-linecap="round" stroke-linejoin="round" stroke-width="2.000000" />
		<path id="Vector" d="M5.48799 18.6681C6.10746 18.6681 6.60964 18.1659 6.60964 17.5465C6.60964 16.927 6.10746 16.4248 5.48799 16.4248C4.86851 16.4248 4.36633 16.927 4.36633 17.5465C4.36633 18.1659 4.86851 18.6681 5.48799 18.6681ZM5.57923 17.6377C5.55895 17.658 5.52854 17.6681 5.48799 17.6681C5.44743 17.6681 5.41702 17.658 5.39675 17.6377C5.37647 17.6174 5.36633 17.587 5.36633 17.5465C5.36633 17.5059 5.37647 17.4755 5.39675 17.4552C5.41702 17.4349 5.44744 17.4248 5.48799 17.4248C5.52854 17.4248 5.55895 17.4349 5.57923 17.4552C5.5995 17.4755 5.60964 17.5059 5.60964 17.5465C5.60964 17.587 5.5995 17.6174 5.57923 17.6377Z" fill="rgb(0,198,79)" fill-rule="evenodd" />
	</g>
</svg>
