<svg viewBox="0 0 16.7155 16.7002" xmlns="http://www.w3.org/2000/svg" xmlns:xlink="http://www.w3.org/1999/xlink" width="16.715454" height="16.700195" fill="none" customFrame="#000000">
	<path id="Vector" d="M5.43877 7.76644L7.77624 10.104L11.8668 6.01325M1.61934 11.8572C0.817635 10.3182 0.566918 8.55119 0.908886 6.84993C1.25085 5.14868 2.1649 3.61577 3.49899 2.50616C4.83308 1.39654 6.50681 0.777107 8.24182 0.750869C9.97682 0.724631 11.6685 1.29317 13.0355 2.36194L10.1137 3.67566M7.19187 13.026L3.59216 14.2649C5.00582 15.4058 6.78149 16.0024 8.59721 15.9464C10.4129 15.8904 12.1485 15.1856 13.4892 13.9598C14.8299 12.7339 15.6869 11.0682 15.905 9.2647C16.123 7.46116 15.6876 5.63919 14.6776 4.12916" fill-rule="nonzero" stroke="rgb(0,198,79)" stroke-width="1.500000" />
</svg>
