<svg viewBox="0 0 13 10.3904" xmlns="http://www.w3.org/2000/svg" xmlns:xlink="http://www.w3.org/1999/xlink" width="13.000000" height="10.390381" fill="none" customFrame="#000000">
	<g id="Group">
		<path id="Vector" d="M0.0424139 9.905C0.0143528 9.95439 -0.000269995 10.0103 3.77466e-06 10.0671C0.000277545 10.1239 0.0154383 10.1796 0.0439742 10.2287C0.07251 10.2778 0.113424 10.3186 0.162635 10.347C0.211847 10.3754 0.267636 10.3903 0.32444 10.3904L11.3923 10.3904C11.4491 10.3903 11.5049 10.3754 11.5541 10.347C11.6033 10.3186 11.6443 10.2778 11.6728 10.2287C11.7013 10.1796 11.7165 10.1239 11.7168 10.0671C11.717 10.0103 11.7024 9.95439 11.6743 9.905L10.1992 7.30893C9.60838 7.37485 9.01204 7.24788 8.49928 6.94698L9.71706 9.09141L1.9997 9.09141L5.85838 2.29875L7.15154 4.57445C7.15414 3.95517 7.36208 3.38527 7.71039 2.92779L6.14106 0.164715C6.11272 0.114711 6.07162 0.0731197 6.02196 0.044183C5.9723 0.0152463 5.91586 0 5.85838 0C5.80091 0 5.74446 0.0152463 5.6948 0.044183C5.64514 0.0731197 5.60404 0.114711 5.57571 0.164715L0.0424139 9.905Z" fill="rgb(255,255,255)" fill-rule="nonzero" />
		<path id="Vector" d="M8.06981 3.56074C8.33772 3.0755 8.78742 2.71656 9.31998 2.56289C9.85254 2.40922 10.4243 2.47339 10.9096 2.7413C11.3948 3.00921 11.7537 3.45891 11.9074 3.99147C12.0611 4.52403 11.9969 5.09582 11.729 5.58106L12.9994 6.85147L12.1546 7.69625L10.8849 6.42583C10.5643 6.59944 10.2037 6.68572 9.8393 6.67602C9.29388 6.66361 8.77503 6.43802 8.39397 6.04761C8.01291 5.65719 7.79996 5.13302 7.80078 4.58747M9.89063 5.48293C10.1281 5.48293 10.3559 5.38859 10.5238 5.22066C10.6918 5.05272 10.7861 4.82496 10.7861 4.58747C10.7861 4.34998 10.6918 4.12221 10.5238 3.95428C10.3559 3.78635 10.1281 3.692 9.89063 3.692C9.65314 3.692 9.42538 3.78635 9.25744 3.95428C9.08951 4.12221 8.99517 4.34998 8.99517 4.58747C8.99517 4.82496 9.08951 5.05272 9.25744 5.22066C9.42538 5.38859 9.65314 5.48293 9.89063 5.48293Z" fill="rgb(255,255,255)" fill-rule="evenodd" />
		<path id="Vector" d="M7.80014 4.58752C7.79949 4.22777 7.89219 3.874 8.06917 3.56079L7.80014 4.58752ZM5.36328 8.44101L5.36328 7.46626L6.33802 7.46626L6.33802 8.44101L5.36328 8.44101ZM5.85065 4.54203C5.72139 4.54203 5.59743 4.59338 5.50603 4.68478C5.41463 4.77618 5.36328 4.90015 5.36328 5.0294L5.36328 6.65398C5.36328 6.78324 5.41463 6.9072 5.50603 6.9986C5.59743 7.09 5.72139 7.14135 5.85065 7.14135C5.97991 7.14135 6.10388 7.09 6.19528 6.9986C6.28668 6.9072 6.33802 6.78324 6.33802 6.65398L6.33802 5.0294C6.33802 4.90015 6.28668 4.77618 6.19528 4.68478C6.10388 4.59338 5.97991 4.54203 5.85065 4.54203Z" fill="rgb(255,255,255)" fill-rule="nonzero" />
	</g>
</svg>
