<svg viewBox="0 0 18 17.25" xmlns="http://www.w3.org/2000/svg" xmlns:xlink="http://www.w3.org/1999/xlink" width="18.000000" height="17.250000" fill="none">
	<defs>
		<filter id="pixso_custom_mask_type_alpha">
			<feColorMatrix type="matrix" values="0 0 0 0 1 0 0 0 0 1 0 0 0 0 1 0 0 0 1 0 " />
		</filter>
	</defs>
	<mask id="mask_0" width="18.000000" height="17.192749" x="0.000000" y="0.000000" maskUnits="userSpaceOnUse">
		<g filter="url(#pixso_custom_mask_type_alpha)">
			<path id="Star Mask" d="M9.44071 14.5436C9.16931 14.3792 8.829 14.3792 8.55761 14.5437L4.39532 17.0665C3.75017 17.4575 2.95263 16.8789 3.12406 16.1443L4.22755 11.4153C4.29924 11.1081 4.19529 10.7864 3.95739 10.5792L0.293637 7.38862C-0.273873 6.8944 0.0312111 5.96091 0.781053 5.89724L5.60934 5.48723C5.92375 5.46053 6.19766 5.26223 6.3212 4.97188L8.21605 0.518403C8.51015 -0.172801 9.48985 -0.172801 9.78395 0.518404L11.6788 4.97188C11.8023 5.26224 12.0762 5.46053 12.3907 5.48723L17.2189 5.89724C17.9688 5.96091 18.2739 6.8944 17.7064 7.38862L14.0426 10.5792C13.8047 10.7864 13.7008 11.1081 13.7725 11.4153L14.876 16.1446C15.0474 16.8792 14.25 17.4578 13.6048 17.0668L9.44071 14.5436Z" fill="rgb(224,232,241)" fill-rule="evenodd" />
		</g>
	</mask>
	<rect id="Style/Star Half" width="18.000000" height="17.250000" x="0.000000" y="0.000000" />
	<path id="Star Background" d="M9.44071 14.5436C9.16931 14.3792 8.829 14.3792 8.55761 14.5437L4.39532 17.0665C3.75017 17.4575 2.95263 16.8789 3.12406 16.1443L4.22755 11.4153C4.29924 11.1081 4.19529 10.7864 3.95739 10.5792L0.293637 7.38862C-0.273873 6.8944 0.0312111 5.96091 0.781053 5.89724L5.60934 5.48723C5.92375 5.46053 6.19766 5.26223 6.3212 4.97188L8.21605 0.518403C8.51015 -0.172801 9.48985 -0.172801 9.78395 0.518404L11.6788 4.97188C11.8023 5.26224 12.0762 5.46053 12.3907 5.48723L17.2189 5.89724C17.9688 5.96091 18.2739 6.8944 17.7064 7.38862L14.0426 10.5792C13.8047 10.7864 13.7008 11.1081 13.7725 11.4153L14.876 16.1446C15.0474 16.8792 14.25 17.4578 13.6048 17.0668L9.44071 14.5436Z" fill="rgb(224,232,241)" fill-rule="evenodd" />
	<g mask="url(#mask_0)">
		<rect id="Star Color" width="9.000000" height="17.190725" x="0.000000" y="0.000000" fill="rgb(255,197,0)" />
	</g>
</svg>
