<svg viewBox="0 0 16.7001 13.5" xmlns="http://www.w3.org/2000/svg" xmlns:xlink="http://www.w3.org/1999/xlink" width="16.700073" height="13.500000" fill="none" customFrame="#000000">
	<path id="Vector" d="M11.1137 12.75L11.1137 12.0441C11.1137 11.2953 10.8225 10.5771 10.3042 10.0476C9.78596 9.51807 9.08302 9.22059 8.35006 9.22059L3.5137 9.22059C2.78074 9.22059 2.07779 9.51807 1.55951 10.0476C1.04123 10.5771 0.750061 11.2953 0.750061 12.0441L0.750061 12.75M7.88607 5.57007C7.36778 6.09958 6.66484 6.39706 5.93188 6.39706C5.19892 6.39706 4.49598 6.09958 3.97769 5.57007C3.45941 5.04055 3.16824 4.32238 3.16824 3.57353C3.16824 2.82468 3.45941 2.10651 3.97769 1.57699C4.49598 1.04748 5.19892 0.75 5.93188 0.75C6.66484 0.75 7.36778 1.04748 7.88607 1.57699C8.40435 2.10651 8.69552 2.82468 8.69552 3.57353C8.69552 4.32238 8.40435 5.04055 7.88607 5.57007ZM10.7682 6.39706C11.5012 6.39706 12.2041 6.09958 12.7224 5.57007C13.2407 5.04055 13.5319 4.32238 13.5319 3.57353C13.5319 2.82468 13.2407 2.10651 12.7224 1.57699C12.2041 1.04748 11.5012 0.75 10.7682 0.75M15.9501 12.75L15.9501 12.0441C15.9501 11.2953 15.6589 10.5771 15.1406 10.0476C14.6223 9.51807 13.9194 9.22059 13.1864 9.22059" fill-rule="nonzero" stroke="rgb(0,198,79)" stroke-linecap="square" stroke-width="1.500000" />
</svg>
