<svg viewBox="0 0 31.5288 35.9654" xmlns="http://www.w3.org/2000/svg" xmlns:xlink="http://www.w3.org/1999/xlink" width="31.528809" height="35.965393" fill="none" customFrame="#000000">
	<path id="Vector" d="M29.0936 15.3996C27.0856 15.2989 25.1245 14.7564 23.3502 13.8108C22.8701 13.5546 22.2603 13.8877 22.2603 14.4327L22.2603 23.9583C22.2601 25.9565 21.676 27.911 20.5797 29.5815C19.4834 31.252 17.9228 32.5657 16.0897 33.3609C14.2567 34.1562 12.2312 34.3983 10.2623 34.0576C8.29347 33.7169 6.46714 32.8081 5.00796 31.4431C3.54877 30.0781 2.52037 28.3163 2.04925 26.3745C1.57812 24.4327 1.68482 22.3956 2.3562 20.5136C3.02759 18.6317 4.2344 16.987 5.82818 15.7819C7.42197 14.5768 9.33324 13.8637 11.3269 13.7305C11.416 13.7258 11.5051 13.7395 11.5887 13.7708C11.6723 13.8021 11.7485 13.8502 11.8126 13.9123C11.8767 13.9743 11.9274 14.0489 11.9614 14.1314C11.9954 14.2139 12.012 14.3025 12.0103 14.3917L12.0103 19.175C12.0103 19.5508 11.7028 19.8532 11.3303 19.9147C10.5593 20.0444 9.84149 20.3918 9.26141 20.9159C8.68134 21.4401 8.26322 22.1192 8.05637 22.8731C7.84951 23.6271 7.86254 24.4245 8.09391 25.1713C8.32528 25.9181 8.76535 26.5832 9.36224 27.0881C9.95913 27.5931 10.6879 27.9168 11.4628 28.0212C12.2376 28.1256 13.0261 28.0063 13.7354 27.6774C14.4446 27.3484 15.045 26.8235 15.4658 26.1646C15.8866 25.5057 16.1102 24.7402 16.1103 23.9583L16.1103 2.43333C16.1103 2.2521 16.1822 2.07829 16.3104 1.95014C16.4385 1.82199 16.6124 1.75 16.7936 1.75L21.5769 1.75C21.7596 1.75466 21.934 1.82726 22.0661 1.95361C22.1981 2.07997 22.2783 2.25101 22.291 2.43333C22.4508 4.1839 23.219 5.82311 24.4621 7.06594C25.7053 8.30877 27.3447 9.0766 29.0953 9.23592C29.4711 9.27008 29.7786 9.57246 29.7786 9.95L29.7769 14.7333C29.7769 15.1092 29.4694 15.4184 29.0936 15.3996Z" fill-rule="nonzero" stroke="rgb(83,169,36)" stroke-linecap="round" stroke-linejoin="round" stroke-width="3.500000" />
</svg>
