<svg viewBox="0 0 32 32" xmlns="http://www.w3.org/2000/svg" xmlns:xlink="http://www.w3.org/1999/xlink" width="32.000000" height="32.000000" fill="none">
	<rect id="proicons:tiktok" width="32.000000" height="32.000000" x="0.000000" y="0.000000" fill="rgb(255,255,255)" fill-opacity="0" />
	<path id="Vector" d="M26.4 13.9868C24.8327 13.9083 23.3021 13.4849 21.9173 12.7468C21.5427 12.5468 21.0667 12.8068 21.0667 13.2322L21.0667 20.6668C21.0666 22.2263 20.6107 23.7518 19.755 25.0556C18.8994 26.3595 17.6813 27.3848 16.2506 28.0055C14.82 28.6261 13.2391 28.8151 11.7024 28.5492C10.1657 28.2832 8.74032 27.574 7.60144 26.5086C6.46257 25.4432 5.65992 24.0682 5.29221 22.5526C4.9245 21.0371 5.00777 19.4471 5.53178 17.9783C6.05579 16.5095 6.99769 15.2258 8.24162 14.2852C9.48555 13.3446 10.9773 12.7881 12.5333 12.6842C12.6029 12.6805 12.6724 12.6912 12.7376 12.7156C12.8028 12.74 12.8623 12.7776 12.9124 12.826C12.9624 12.8744 13.002 12.9326 13.0285 12.997C13.055 13.0614 13.068 13.1305 13.0667 13.2002L13.0667 16.9335C13.0667 17.2268 12.8267 17.4628 12.536 17.5108C11.9342 17.612 11.374 17.8832 10.9212 18.2923C10.4685 18.7014 10.1421 19.2314 9.98069 19.8199C9.81924 20.4083 9.82941 21.0307 10.01 21.6135C10.1906 22.1964 10.534 22.7155 10.9999 23.1096C11.4658 23.5037 12.0346 23.7564 12.6393 23.8379C13.2441 23.9193 13.8595 23.8262 14.4131 23.5695C14.9666 23.3127 15.4352 22.9031 15.7637 22.3888C16.0921 21.8745 16.2666 21.277 16.2667 20.6668L16.2667 3.86683C16.2667 3.72538 16.3228 3.58973 16.4229 3.48971C16.5229 3.38969 16.6585 3.3335 16.8 3.3335L20.5333 3.3335C20.6759 3.33713 20.812 3.39379 20.9151 3.49241C21.0182 3.59103 21.0807 3.72453 21.0907 3.86683C21.2153 5.23313 21.8149 6.51251 22.7852 7.48252C23.7555 8.45253 25.035 9.05182 26.4013 9.17616C26.6947 9.20283 26.9347 9.43883 26.9347 9.7335L26.9333 13.4668C26.9333 13.7602 26.6933 14.0015 26.4 13.9868Z" fill-rule="nonzero" stroke="rgb(128,128,128)" stroke-linecap="round" stroke-linejoin="round" stroke-width="1.500000" />
</svg>
