<svg viewBox="0 0 23 20.7058" xmlns="http://www.w3.org/2000/svg" xmlns:xlink="http://www.w3.org/1999/xlink" width="23.000000" height="20.705811" fill="none" customFrame="#000000">
	<path id="Vector" d="M22.9317 1.93071C16.0705 -0.436468 8.61279 -0.631995 1.6299 1.37221C1.35234 1.43668 1.09101 1.55477 0.861511 1.71943C0.632012 1.88409 0.439052 2.09194 0.294153 2.33058C0.149253 2.56922 0.0553854 2.83376 0.0181537 3.10839C-0.0190779 3.38302 0.00109003 3.66211 0.0774534 3.92901C0.459639 5.41763 1.01711 7.12797 1.68666 8.67864C1.69815 8.7149 1.71611 8.69747 1.71611 8.66121C1.61913 7.93398 2.19528 7.01571 3.32532 6.68173C8.75592 5.00378 14.6005 5.07888 19.9835 6.89579C20.182 6.9615 20.3921 6.98801 20.6014 6.97375C20.8107 6.9595 21.0149 6.90476 21.202 6.81277C21.3892 6.72078 21.5555 6.59338 21.6912 6.43809C21.8269 6.28279 21.9292 6.10273 21.9921 5.90849C22.6616 3.81675 22.9317 2.39646 22.9986 2.04087C23.01 1.97463 22.9497 1.94883 22.9317 1.93071ZM6.37778 6.53252C5.55521 6.69916 4.41799 6.96133 3.56454 7.23604C1.85835 7.80709 1.93738 9.82212 2.84615 10.465C2.91296 10.0913 3.32532 9.58297 3.78509 9.41145C5.4884 8.76161 7.31744 8.37325 9.16658 8.21288C8.22692 7.84264 7.31025 7.31204 6.38999 6.53183L6.37778 6.53252ZM19.9605 10.5668C17.5093 9.44873 14.852 8.81905 12.1458 8.71498C9.43954 8.61091 6.73926 9.03456 4.20463 9.96088C3.39213 10.2586 2.8835 11.218 3.39213 12.1286C4.28102 13.6875 5.28937 15.1794 6.40867 16.5917C6.24775 16.0506 6.53223 15.0487 7.62419 14.721C10.6443 13.8201 13.8132 14.2022 15.9195 15.0298C16.5143 15.262 17.3563 15.1212 17.8283 14.4351C18.6332 13.2317 19.3653 11.9839 20.0208 10.6979C20.0503 10.64 20.0208 10.5968 19.9605 10.5668ZM15.0668 17.7902C14.1835 17.3569 13.3756 16.792 12.6723 16.1162C12.3469 15.8003 11.8677 15.3464 11.3627 14.8053C10.2097 14.8053 9.09043 14.9176 7.89359 15.2885C6.78223 15.626 6.67806 16.872 7.16442 17.5218C7.98698 18.5168 8.56385 19.0536 9.48411 19.9768C9.97181 20.4411 10.6267 20.7026 11.3099 20.7059C11.993 20.7091 12.6505 20.4538 13.1429 19.9942C13.8613 19.297 14.3031 18.8319 15.1149 17.9388C15.163 17.8913 15.1451 17.8084 15.0668 17.7902Z" fill="rgb(255,255,255)" fill-rule="nonzero" />
</svg>
