<svg viewBox="0 0 17 17" xmlns="http://www.w3.org/2000/svg" xmlns:xlink="http://www.w3.org/1999/xlink" width="17.000000" height="17.000000" fill="none">
	<rect id="twitter" width="17.000000" height="17.000000" x="0.000000" y="0.000000" fill="rgb(255,255,255)" fill-opacity="0" />
	<path id="Vector" d="M14.0675 3.20904C13.6409 2.71852 13.074 2.37086 12.4434 2.21307C11.8127 2.05528 11.1489 2.09497 10.5415 2.32677C9.93418 2.55858 9.41269 2.97132 9.04757 3.50917C8.68246 4.04702 8.49133 4.68402 8.50004 5.33404L8.50004 6.04237C7.25524 6.07465 6.02178 5.79857 4.90951 5.23873C3.79724 4.67888 2.84068 3.85265 2.12504 2.83362C2.12504 2.83362 -0.708293 9.20862 5.66671 12.042C4.20792 13.0322 2.47011 13.5287 0.708374 13.4586C7.08338 17.0003 14.875 13.4586 14.875 5.31279C14.8744 5.11548 14.8554 4.91867 14.8184 4.72487C15.5413 4.01193 16.0515 3.11179 16.2917 2.12529C15.6134 2.60375 14.8624 2.9697 14.0675 3.20904Z" fill-rule="nonzero" stroke="rgb(0,198,79)" stroke-linecap="round" stroke-linejoin="round" stroke-width="1.000000" />
</svg>
