<svg viewBox="0 0 34.1665 27.3333" xmlns="http://www.w3.org/2000/svg" xmlns:xlink="http://www.w3.org/1999/xlink" width="34.166504" height="27.333313" fill="none" customFrame="#000000">
	<path id="Vector" d="M17.0833 0C18.544 0 20.0422 0.0375835 21.4942 0.0990835L23.2094 0.181083L24.8511 0.278459L26.3886 0.382667L27.7929 0.492C29.317 0.607981 30.7514 1.25807 31.8433 2.32778C32.9351 3.39748 33.6145 4.81818 33.7618 6.33962L33.8301 7.06567L33.9582 8.62025C34.0778 10.2312 34.1667 11.9874 34.1667 13.6667C34.1667 15.346 34.0778 17.1021 33.9582 18.7131L33.8301 20.2677L33.7618 20.9937C33.6145 22.5154 32.9348 23.9363 31.8426 25.0061C30.7504 26.0758 29.3156 26.7257 27.7912 26.8413L26.3903 26.949L24.8528 27.0549L23.2094 27.1522L21.4942 27.2342C20.0248 27.2979 18.5542 27.3309 17.0833 27.3333C15.6125 27.3309 14.1419 27.2979 12.6724 27.2342L10.9572 27.1522L9.31554 27.0549L7.77804 26.949L6.37379 26.8413C4.84964 26.7254 3.4153 26.0753 2.32341 25.0056C1.23152 23.9359 0.552118 22.5152 0.404875 20.9937L0.336542 20.2677L0.208417 18.7131C0.0782976 17.034 0.00878022 15.3508 0 13.6667C1.02418e-14 11.9874 0.0888333 10.2312 0.208417 8.62025L0.336542 7.06567L0.404875 6.33962C0.55206 4.81844 1.23122 3.39796 2.32276 2.3283C3.4143 1.25863 4.84824 0.608365 6.37208 0.492L7.77462 0.382667L9.31213 0.278459L10.9555 0.181083L12.6707 0.0990835C14.1407 0.035409 15.6119 0.00237387 17.0833 0ZM17.0833 3.41667C15.674 3.41667 14.2236 3.45425 12.8125 3.51233L11.1418 3.59263L9.53763 3.68658L8.03088 3.78908L6.65054 3.89671C5.92483 3.94751 5.24064 4.25397 4.71954 4.76161C4.19845 5.26925 3.87422 5.9452 3.80446 6.66933C3.60458 8.73471 3.41667 11.3057 3.41667 13.6667C3.41667 16.0276 3.60458 18.5986 3.80446 20.664C3.94967 22.1537 5.13183 23.3119 6.65054 23.4366L8.03088 23.5425L9.53763 23.645L11.1418 23.7407L12.8125 23.821C14.2236 23.8791 15.674 23.9167 17.0833 23.9167C18.4927 23.9167 19.9431 23.8791 21.3542 23.821L23.0249 23.7407L24.629 23.6467L26.1358 23.5442L27.5161 23.4366C28.2418 23.3858 28.926 23.0794 29.4471 22.5717C29.9682 22.0641 30.2924 21.3881 30.3622 20.664C30.5621 18.5986 30.75 16.0276 30.75 13.6667C30.75 11.3057 30.5621 8.73471 30.3622 6.66933C30.2924 5.9452 29.9682 5.26925 29.4471 4.76161C28.926 4.25397 28.2418 3.94751 27.5161 3.89671L26.1358 3.79079L24.629 3.68829L23.0249 3.59263L21.3542 3.51233C19.9314 3.45127 18.5074 3.41937 17.0833 3.41667ZM13.6667 9.52396C13.6666 9.35699 13.7072 9.19253 13.7852 9.04486C13.8631 8.8972 13.9759 8.77081 14.1138 8.67668C14.2517 8.58256 14.4105 8.52355 14.5765 8.50478C14.7424 8.48601 14.9103 8.50806 15.0658 8.569L15.2042 8.63733L22.3792 12.7783C22.522 12.8608 22.6429 12.9765 22.7315 13.1156C22.8201 13.2548 22.8738 13.4132 22.8881 13.5776C22.9023 13.7419 22.8767 13.9073 22.8134 14.0596C22.7501 14.2119 22.6509 14.3467 22.5244 14.4525L22.3792 14.555L15.2042 18.6977C15.0596 18.7814 14.8967 18.8285 14.7298 18.8349C14.5628 18.8413 14.3968 18.8068 14.2462 18.7344C14.0957 18.662 13.9651 18.5538 13.8658 18.4194C13.7666 18.285 13.7018 18.1283 13.6769 17.9631L13.6667 17.8094L13.6667 9.52396Z" fill="rgb(83,169,36)" fill-rule="nonzero" />
</svg>
